# xmcd CD database file
#
# Track frame offsets:
#	150
#	23475
#	38422
#	72215
#
# Disc length: 1210 seconds
#
# Revision: 0
# Processed by: cddbd v1.5PL3 Copyright (c) Steve Scherf et al.
# Submitted via: CDex 1.51
#
DISCID=2204b804
DTITLE=PE'Z - 大地讃頌
DYEAR=2003
DGENRE=Jazz
TTITLE0=大地讃頌
TTITLE1=A Night in Tunisia 〜チュニジアの夜〜
TTITLE2=Please come here
TTITLE3=大地讃頌 (Radio Edit)
EXTD=YEAR: 2003/11/19
EXTT0=
EXTT1=
EXTT2=
EXTT3=
PLAYORDER=
